<svg width="600" height="400" xmlns="http://www.w3.org/2000/svg" xmlns:svg="http://www.w3.org/2000/svg" stroke-width="5" stroke="#000" fill="#FFF"><rect height="400" width="600" x="0" y="0"/><text xml:space="preserve" text-anchor="middle" font-family="serif" font-size="18" fill="#000" stroke-width="1" x="245" y="25">résultat dans la console</text><line x1="245" y1="35" x2="245" y2="50" stroke-width="5" stroke="#000"/><text xml:space="preserve" text-anchor="middle" font-family="serif" font-size="18" fill="#000" stroke-width="1" x="245" y="70">malg* fichier.malg (ou NP++)</text><text xml:space="preserve" text-anchor="middle" font-family="serif" font-size="18" fill="#000" stroke-width="1" x="505" y="25">HTML</text><line x1="505" y1="35" x2="505" y2="50" stroke-width="5" stroke="#000"/><text xml:space="preserve" text-anchor="middle" font-family="serif" font-size="18" fill="#000" stroke-width="1" x="505" y="70">formulaire</text><rect height="45" width="500" x="58" y="150"/><text xml:space="preserve" text-anchor="middle" font-family="serif" font-size="24" fill="#000" stroke-width="1" x="320" y="180">microalg.l</text><rect height="45" width="110" x="58" y="90"/><text xml:space="preserve" text-anchor="middle" font-family="serif" font-size="24" fill="#000" stroke-width="1" x="115" y="120">malg</text><line x1="115" y1="195" x2="115" y2="210" stroke-width="5" stroke="#000"/><text xml:space="preserve" text-anchor="middle" font-family="serif" font-size="24" fill="#000" stroke-width="1" x="115" y="235">pil</text><text xml:space="preserve" text-anchor="middle" font-family="serif" font-size="24" fill="#000" stroke-width="1" x="115" y="280">PicoLisp</text><line x1="115" y1="290" x2="115" y2="350" stroke-width="5" stroke="#000"/><rect height="45" width="110" x="188" y="90" stroke-width="5" stroke="#000" fill="#FFF"/><text xml:space="preserve" text-anchor="middle" font-family="serif" font-size="24" fill="#000" stroke-width="1" x="245" y="120">malgj</text><line x1="245" y1="195" x2="245" y2="210" stroke-width="5" stroke="#000"/><text xml:space="preserve" text-anchor="middle" font-family="serif" font-size="24" fill="#000" stroke-width="1" x="245" y="235">pilj</text><text xml:space="preserve" text-anchor="middle" font-family="serif" font-size="24" fill="#000" stroke-width="1" x="245" y="280">Ersatz</text><text xml:space="preserve" text-anchor="middle" font-family="serif" font-size="24" fill="#000" stroke-width="1" x="245" y="325">JVM</text><line x1="245" y1="335" x2="245" y2="350" stroke-width="5" stroke="#000"/><rect height="45" width="110" x="318" y="90" stroke-width="5" stroke="#000" fill="#FFF"/><text xml:space="preserve" text-anchor="middle" font-family="serif" font-size="24" fill="#000" stroke-width="1" x="375" y="120">malgjs</text><line x1="375" y1="195" x2="375" y2="210" stroke-width="5" stroke="#000"/><text xml:space="preserve" text-anchor="middle" font-family="serif" font-size="24" fill="#000" stroke-width="1" x="375" y="235">piljs</text><text xml:space="preserve" text-anchor="middle" font-family="serif" font-size="24" fill="#000" stroke-width="1" x="375" y="280">EmuLisp</text><text xml:space="preserve" text-anchor="middle" font-family="serif" font-size="24" fill="#000" stroke-width="1" x="375" y="325">NodeJS</text><line x1="375" y1="335" x2="375" y2="350" stroke-width="5" stroke="#000"/><rect height="45" width="110" x="448" y="90" stroke-width="5" stroke="#000" fill="#FFF"/><text xml:space="preserve" text-anchor="middle" font-family="serif" font-size="24" fill="#000" stroke-width="1" x="505" y="120">web IDE</text><line x1="505" y1="195" x2="505" y2="250" stroke-width="5" stroke="#000"/><text xml:space="preserve" text-anchor="middle" font-family="serif" font-size="24" fill="#000" stroke-width="1" x="505" y="280">EmuLisp</text><text xml:space="preserve" text-anchor="middle" font-family="serif" font-size="24" fill="#000" stroke-width="1" x="505" y="325">browser</text><line x1="505" y1="335" x2="505" y2="350" stroke-width="5" stroke="#000"/><rect fill="#FFF" stroke="#000" stroke-width="5" x="50" y="350" width="500" height="40"/><text xml:space="preserve" text-anchor="middle" font-family="serif" font-size="24" fill="#000" stroke-width="1" x="300" y="380">MACHINE</text></svg>