<?xml version="1.0" encoding="UTF-8" standalone="no"?>
<!-- https://github.com/Neon22/ -->
<svg
   xmlns="http://www.w3.org/2000/svg"
   width="130"
   height="70"
   version="1.1"
   viewBox="0 0 180 80"
   >
  <g
     transform="translate(0,-972.36218)"
     id="layer1">
    <g
       transform="translate(0.000000,0.000000)"
       >
      <path
         style="stroke-linejoin:miter;stroke:#0000FF;stroke-width:2;stroke-linecap:butt;fill:none"
         d="M0 5.0c0 -2.5 2.5 -5.0 5.0 -5.0c2.5 0 167.5 0 170.0 0c2.5 0 5.0 2.5 5.0 5.0c0 2.5 0 67.5 0 70.0c0 2.5 -2.5 5.0 -5.0 5.0c-2.5 0 -167.5 0 -170.0 0c-2.5 0 -5.0 -2.5 -5.0 -5.0c0 -2.5 0 -67.5 0 -70.0" />
    </g>
    <g
       transform="translate(0,972.14285)"
       >
      <g>
        <!-- premier vertical -->
        <path
           style="fill:none;stroke:#000000;stroke-width:2;stroke-linecap:butt;stroke-linejoin:miter"
           d="m 60,0 c 0,0 6.23853,4.155907 3.346402,12.093792 -2.892129,7.937885 -4.026147,-2.6478499 -11.227412,-1.681391 -7.201266,0.966459 -8.365135,17.477954 -1.678736,18.444087 6.686399,0.966133 8.711895,-8.085878 12.347646,-1.655128 3.635751,6.43075 -7.323625,17.627579 -3.711835,25.12377 3.61179,7.49619 0.33828,-0.323636 8.177239,0.123403 7.838959,0.447038 6.39766,15.106912 -0.241838,16.059281 -6.639499,0.95237 -5.021282,-8.173677 -8.77021,-1.467701 C 54.492328,73.746089 60,80 60,80"
            />
        <!-- deuxieme vertical -->
        <path
           style="fill:none;stroke:#000000;stroke-width:2;stroke-linecap:butt;stroke-linejoin:miter"
           id="path4200"
           d="m 120,0 c 0,0 -5.79184,5.62307 -2.11227,12.999686 3.67957,7.376616 3.40489,-0.903444 10.93458,-0.09258 7.52968,0.810861 6.91145,15.48439 0.47857,16.343633 -6.43287,0.859243 -6.62573,-6.935468 -10.06229,-0.743359 -3.43656,6.192108 -3.66258,15.649509 0.007,23.047014 3.66926,7.397505 -0.11804,-0.09369 7.76268,0.25758 7.88072,0.351267 7.47298,15.091725 1.52236,15.202658 -5.95062,0.110932 -5.8306,-5.263283 -9.32348,0.982142 C 115.71394,74.242196 120,80 120,80"
            />
      </g>
      <g>
        <!-- horizontal -->
        <path
           style="fill:none;stroke:#000000;stroke-width:2;stroke-linecap:butt;stroke-linejoin:miter"
           d="m 0,40 c 0,0 15.706195,-5.713974 22.997279,-1.998198 7.291084,3.715776 -1.638971,1.796911 -0.723751,9.144309 0.915221,7.347398 15.131792,8.553254 15.658635,2.458773 0.526842,-6.094482 -6.735902,-7.225579 -0.501814,-10.707199 6.234088,-3.48162 35.093199,-4.526225 43.003131,-1.487999 7.909932,3.038227 1.003459,4.622031 1.843402,12.109149 0.839943,7.487119 13.805966,5.187536 14.796974,-1.623102 0.991007,-6.810638 -5.650135,-5.622706 0.442921,-8.92502 6.093053,-3.302314 37.012573,7.107137 44.946113,4.182108 7.93355,-2.925029 -1.58783,-5.00383 -1.05456,-12.794222 0.53327,-7.790392 16.43686,-4.193868 17.41606,2.547681 0.9792,6.74155 -7.1698,7.385168 -1.2165,10.295765 C 163.5612,46.112643 180,40 180,40"
            />
      </g>
      <!-- bord -->
      <rect rx="5" ry="5" x="1" y="1" width="178" height="78" fill="none" stroke="#000" stroke-width="2" />
    </g>
  </g>
</svg>
