<?xml version="1.0" encoding="UTF-8" standalone="no"?>
<svg width="130px" height="70px" viewBox="0 0 180 80" version="1.1" xmlns="http://www.w3.org/2000/svg" xmlns:xlink="http://www.w3.org/1999/xlink">
  <!-- web -->
  <rect height="67" width="56" y="1" x="1" rx="3" stroke-width="2" stroke="#000000" fill="#aaa"/>
  <rect height="53" width="48" y="4" x="5" stroke="#000000" fill="#fff"/>
  <circle stroke-width="1" cy="62" cx="29" r="3" stroke="#000000" fill="#FFF"/>
  <text xml:space="preserve" text-anchor="middle" font-family="serif" font-size= "9" y="13" x="22">www.</text>
  <text xml:space="preserve" text-anchor="middle" font-family="serif" font-size="10" y="32" x="29">monsite</text>
  <text xml:space="preserve" text-anchor="middle" font-family="serif" font-size= "9" y="52" x="39">.info</text>
  <!-- console -->
  <rect stroke-width="2" height="18" width="40" y="7" x="76" rx="5" ry="5" stroke="#000000" fill="#FFF"/>
  <rect height="8.85938" width="13.5" y="11.79688" x="89.04688" stroke="#000000" fill="#ccc"/>
  <path d="m80.20721,17.60999l1.67436,0l0,-1.67432l1.71757,0l0,1.67432l1.67429,0l0,1.71753l-1.67429,0l0,1.6743l-1.71757,0l0,-1.6743l-1.67436,0l0,-1.71753z" stroke-width="1" stroke="#000000" fill="#000000"/>
  <path d="m106.6848,17.62068l1.67339,0l0,-1.6734l1.71663,0l0,1.6734l1.67338,0l0,1.71659l-1.67338,0l0,1.67342l-1.71663,0l0,-1.67342l-1.67339,0l0,-1.71659z" stroke-width="1" stroke="#000000" fill="#000000"/>
  <!-- robot -->
  <rect stroke-width="3" height="16" width="5" y="45" x="115" stroke="#000000" fill="#000"/>
  <rect stroke-width="3" height="16" width="5" y="45" x="170" stroke="#000000" fill="#000"/>
  <rect stroke-width="2" height="32" width="50" y="35" x="120" rx="5" ry="5" stroke="#000000" fill="#FFF"/>
  <circle stroke-width="2" cy="45" cx="135" r="5" stroke="#000000" fill="#FFF"/>
  <circle stroke-width="2" cy="45" cx="155" r="5" stroke="#000000" fill="#FFF"/>
  <rect stroke-width="2" height="6" width="30" y="55" x="130" stroke="#000000" fill="#FFF"/>
  <rect stroke-width="2" height="6" width="20" y="29" x="135" rx="5" stroke="#000000" fill="#000"/>
  <rect stroke-width="2" height="16" width="6" y="19" x="142" stroke="#000000" fill="#000"/>
  <circle stroke-width="2" cy="15" cx="145" r="6" stroke="#000000" fill="#FFF"/>
</svg>
