<?xml version="1.0" encoding="UTF-8" standalone="no"?>
<svg width="130px" height="70px" viewBox="0 0 130 70" version="1.1" xmlns="http://www.w3.org/2000/svg" xmlns:xlink="http://www.w3.org/1999/xlink">

 <g>
<!-- #fab #fdb #ffd #dfb #cef #dcf #bbe -->
  <rect x=  "0"   y= "0" width="5" height="11" fill="#fab"/>
  <rect x="114.5" y= "0" width="5" height="11" fill="#fab"/>
  <rect x=  "0"   y="13" width="5" height="11" fill="#fab"/>
  <rect x= "24"   y="13" width="5" height="11" fill="#fdb"/>
  <rect x= "54"   y="13" width="5" height="11" fill="#ffa"/>
  <rect x= "90"   y="13" width="5" height="11" fill="#ffa"/>
  <rect x= "96.5" y="13" width="5" height="11" fill="#fdb"/>
  <rect x= "24"   y="39.5" width="5" height="11" fill="#fdb"/>
  <rect x="108.5" y="39.5" width="5" height="11" fill="#fdb"/>
  <rect x=  "0"   y="52" width="5" height="11" fill="#fab"/>
  <line x1="37" y1="11" x2="109" y2="11" stroke="#999" stroke-width="1px"/>
  <line x1="90" y1="50" x2="103" y2="50" stroke="#999" stroke-width="1px"/>
  <text xml:space="preserve" text-anchor="left" font-size="10" font-family="monospace" x="0" y=  "9">(!!! "Vérification")</text>
  <text xml:space="preserve" text-anchor="left" font-size="10" font-family="monospace" x="0" y= "22">(Si (= y (+ x 1))</text>
  <text xml:space="preserve" text-anchor="left" font-size="10" font-family="monospace" x="0" y= "35"> Alors</text>
  <text xml:space="preserve" text-anchor="left" font-size="10" font-family="monospace" x="0" y= "48">    (Afficher &quot;OK&quot;)</text>
  <text xml:space="preserve" text-anchor="left" font-size="10" font-family="monospace" x="0" y= "61">)</text>
 </g>
</svg>
